<svg width="128" height="26" viewBox="0 0 128 26" fill="none" xmlns="http://www.w3.org/2000/svg">
<g clip-path="url(#clip0_12207_4285)">
<path d="M13.5122 19.2409H14.7585V25.0326H12.6624C9.9597 25.0326 8.80197 23.8738 8.80197 21.1721V21.133H8.49296C8.22207 23.8357 7.3342 25.4189 4.55524 25.4189C1.5435 25.4189 -0.000487978 23.4495 -0.000487978 19.589V7.15681C-0.00151799 2.8318 2.62398 0.321671 6.79345 0.321671C9.10994 0.321671 10.6931 1.01693 11.6973 2.02015C13.3186 3.64139 13.6667 5.76527 13.5122 11.3253L7.41146 11.7115V7.23303C7.41146 6.57691 7.29506 6.11341 6.75534 6.11341C6.25373 6.11341 6.09922 6.61502 6.09922 7.23303V18.5075C6.09922 19.1636 6.21459 19.6271 6.75534 19.6271C7.25695 19.6271 7.41146 19.1255 7.41146 18.5075V13.2184H13.5122V19.2419V19.2409Z" fill="white"/>
<path d="M28.9233 19.2409H30.3334L29.7627 25.0326H26.3369C24.213 25.0326 23.1326 23.8738 23.0934 21.1721L23.0543 16.5C23.0543 15.7666 22.8225 15.4576 22.2045 15.4576H21.9728V25.0326H15.872V0.707918H22.8215C27.1846 0.707918 29.5392 2.8318 29.5392 6.80866V7.69653C29.5392 9.93577 27.8788 11.9433 25.6787 12.4459V12.7549C26.8756 13.3338 27.5709 14.1063 28.3042 16.8863L28.9222 19.2419L28.9233 19.2409ZM21.9738 6.34516V10.7464H22.4754C23.1315 10.7464 23.286 10.2829 23.286 9.51037V7.58014C23.286 6.80763 23.1315 6.34413 22.4754 6.34413H21.9738V6.34516Z" fill="white"/>
<path d="M39.1151 25.0316L38.768 18.4292H37.0695L36.7214 25.0316H30.9296L33.0927 0.707918H43.0158L45.1778 25.0326H39.1162L39.1151 25.0316ZM37.3775 12.6375H38.459L38.4199 11.556C38.3035 9.5866 38.149 7.07749 38.0728 5.49437H37.7638C37.6865 7.07749 37.5711 9.5866 37.4547 11.556L37.3775 12.6375Z" fill="white"/>
<path d="M59.7657 7.19388V9.24051C59.7657 13.6809 57.1402 15.8037 52.9707 15.8037H52.3527V25.0316H46.252V0.707918H53.0469C57.41 0.707918 59.7646 2.8318 59.7646 7.19491L59.7657 7.19388ZM53.6649 7.58014C53.6649 6.80763 53.5104 6.34413 52.8543 6.34413H52.3527V10.7454H52.8543C53.5104 10.7454 53.6649 10.2818 53.6649 9.50934V7.57911V7.58014Z" fill="white"/>
<path d="M68.2542 0.707918H74.355V25.0326H68.2542V13.7118H66.941V25.0326H60.8402V0.707918H66.941V7.92004H68.2542V0.707918Z" fill="white"/>
<path d="M88.9821 6.87767H81.7288V7.96639H88.9821V13.5264H81.7288V25.0326H75.4694V0.707918H88.9831V6.87767H88.9821Z" fill="white"/>
<path d="M90.0966 18.5837V0.707918H96.1973L96.1582 18.5075C96.1582 19.1636 96.2735 19.6271 96.8143 19.6271C97.3159 19.6271 97.4704 19.1255 97.4704 18.5075V0.707918H103.571V18.5848C103.571 22.9087 100.946 25.4189 96.7751 25.4189C92.6046 25.4189 90.0955 22.9098 90.0955 18.5848L90.0966 18.5837Z" fill="white"/>
<path d="M110.786 19.2409H115.623V25.0326H104.687V0.707918H110.787V19.2409H110.786Z" fill="white"/>
<path d="M122.837 19.2409H127.674V25.0326H116.738V0.707918H122.838V19.2409H122.837Z" fill="white"/>
</g>
<defs>
<clipPath id="clip0_12207_4285">
<rect width="127" height="25" fill="white" transform="translate(0.166504 0.333344)"/>
</clipPath>
</defs>
</svg>
